<svg xmlns="http://www.w3.org/2000/svg" version="1.1" viewBox="-5.0 -10.0 110.0 135.0">
 <path d="m91.898 52.449h-0.070313l-17.531-2.5117c-0.26172-0.039062-0.44141-0.28125-0.41016-0.53906 0.039062-0.26172 0.28125-0.44141 0.53906-0.41016l16.629 2.3789-20.121-40.59c-0.12109-0.23828-0.019532-0.51953 0.21875-0.64062 0.23828-0.12109 0.51953-0.019531 0.64062 0.21875l20.531 41.41c0.078125 0.16016 0.058593 0.35156-0.039063 0.48828-0.089844 0.12891-0.23828 0.19922-0.39062 0.19922z"/>
 <path d="m30.012 72.039c-0.10156 0-0.19922-0.03125-0.28125-0.089843-0.14062-0.10156-0.21875-0.28125-0.19141-0.44922l6.3086-45.922c0.019532-0.16016 0.12109-0.30078 0.26953-0.37109 0.14844-0.070312 0.32031-0.058593 0.46094 0.03125l38.051 23.828c0.14844 0.089844 0.23047 0.26172 0.21875 0.42969-0.011718 0.17188-0.10938 0.32812-0.26172 0.39844l-44.359 22.09c-0.070312 0.03125-0.14062 0.050781-0.21094 0.050781zm6.6797-45.598-6.0898 44.289 42.781-21.309-36.699-22.98z"/>
 <path d="m30.012 72.039c-0.14844 0-0.28906-0.070312-0.39062-0.19922l-21.902-29.789c-0.078125-0.10938-0.10938-0.25-0.078125-0.37891s0.10938-0.25 0.23047-0.32031l28.219-16.121c0.16016-0.089844 0.35156-0.078125 0.5 0.019531 0.14844 0.10156 0.23047 0.28125 0.21094 0.46094l-6.3086 45.922c-0.03125 0.19141-0.17188 0.35156-0.35938 0.39844-0.039062 0.011719-0.078124 0.011719-0.12109 0.011719zm-21.211-30.129 20.891 28.41 6.0195-43.789z"/>
 <path d="m74.371 49.941c-0.089844 0-0.17969-0.019531-0.25-0.070312l-38.051-23.828c-0.14844-0.089844-0.23828-0.26172-0.21875-0.44141 0.011719-0.17969 0.12109-0.32812 0.28906-0.39844l35.051-15.07c0.14062-0.058593 0.30078-0.050781 0.44141 0.03125 0.12891 0.078126 0.21875 0.21875 0.23047 0.37109l2.9883 38.898c0.011719 0.17969-0.070312 0.35156-0.23047 0.44922-0.078125 0.050782-0.16016 0.070313-0.25 0.070313zm-37.031-24.223 36.469 22.84-2.8711-37.289-33.602 14.449z"/>
 <path d="m69.789 89.91c-0.070312 0-0.12891-0.011718-0.19922-0.039062l-39.789-17.879c-0.17188-0.078126-0.28125-0.23828-0.28125-0.42969s0.10156-0.35156 0.26172-0.44141l44.359-22.102c0.14844-0.078125 0.33984-0.058593 0.48828 0.039063 0.14062 0.10156 0.21875 0.26953 0.19922 0.44922l-4.5703 39.969c-0.019531 0.14844-0.10937 0.28906-0.23828 0.35938-0.070312 0.039062-0.14844 0.058593-0.23828 0.058593zm-38.66-18.371 38.27 17.199 4.3984-38.449-42.672 21.25z"/>
 <path d="m8.1016 42.238c-0.12891 0-0.26172-0.050781-0.35156-0.14844-0.14844-0.16016-0.17188-0.41016-0.039062-0.58984l21.379-31.211c0.10156-0.14062 0.26172-0.23047 0.44141-0.21094 0.17188 0.011719 0.32031 0.12109 0.39062 0.28125l6.8281 15.07c0.10156 0.23047 0.019531 0.48828-0.19922 0.60937l-28.219 16.121c-0.070312 0.039063-0.16016 0.058594-0.23828 0.058594zm21.297-30.699-19.73 28.781 26.031-14.871-6.3008-13.898z"/>
 <path d="m69.789 89.91h-0.078124l-45.602-8.0781c-0.14844-0.03125-0.28906-0.12891-0.35156-0.26953-0.070312-0.14062-0.058593-0.30859 0.019532-0.44141l5.8086-9.8008c0.12109-0.21094 0.37891-0.28906 0.60937-0.19141l39.789 17.879c0.21875 0.10156 0.32812 0.35156 0.26172 0.57813-0.058594 0.19922-0.25 0.33984-0.46094 0.33984zm-44.828-8.8984 41.121 7.2891-35.879-16.121-5.2383 8.8398z"/>
 <path d="m36.32 26.121c-0.17969 0-0.35937-0.10156-0.44141-0.28125l-6.8281-15.07c-0.070312-0.14844-0.050781-0.32031 0.03125-0.46094 0.089844-0.14062 0.23828-0.21875 0.39844-0.21875h41.879c0.23047 0 0.42188 0.16016 0.46875 0.37891 0.050781 0.21875-0.070313 0.44922-0.28125 0.53906l-35.051 15.07c-0.058594 0.03125-0.12891 0.039063-0.19141 0.039063zm-6.0898-15.082 6.3281 13.969 32.488-13.969z"/>
 <path d="m24.199 81.84h-0.039063c-0.17969-0.011719-0.33984-0.12891-0.41016-0.30078l-16.09-39.598c-0.089844-0.21875 0-0.48047 0.21094-0.60156 0.21094-0.12109 0.48047-0.058594 0.62109 0.12891l21.91 29.801c0.10938 0.14844 0.12109 0.35938 0.03125 0.53125l-5.8086 9.8008c-0.089844 0.14844-0.23828 0.23047-0.41016 0.23047zm-14.211-36.699 14.289 35.148 5.1602-8.6992z"/>
 <path d="m69.789 89.91c-0.050781 0-0.10156 0-0.14844-0.03125-0.21094-0.070312-0.35156-0.28125-0.32031-0.51172l4.5703-39.969c0.011719-0.12891 0.078125-0.25 0.17969-0.32031 0.10156-0.070313 0.23047-0.10938 0.35938-0.089844l17.531 2.5117c0.16016 0.019531 0.28906 0.12109 0.35937 0.26953 0.070313 0.14062 0.058594 0.30859-0.019531 0.44922l-22.109 37.461c-0.089844 0.14844-0.25 0.23828-0.41016 0.23828zm5-39.898-4.2617 37.25 20.602-34.91z"/>
 <path d="m41.301 59.012c-0.12109 0-0.23047-0.039063-0.32031-0.12109-0.14844-0.14062-0.19922-0.35938-0.10938-0.55078 0.019531-0.050782 2.1602-4.75 1.9297-7.7383-0.14062-1.8398-0.80859-3.25-1.7812-3.7891-0.64062-0.35156-1.3789-0.30859-2.2188 0.12891-2.3008 1.2109-1.1992 3.8984-1.1602 4.0117 0.10156 0.23828-0.011719 0.51953-0.25 0.62891s-0.51953-0.011719-0.62891-0.25c-0.53125-1.2383-0.87891-3.9414 1.5898-5.2305 1.4219-0.75 2.4805-0.48047 3.1289-0.12109 1.25 0.69141 2.1016 2.3984 2.2695 4.5508 0.17188 2.2305-0.80859 5.1992-1.4609 6.8906l7.1484-4.1602c0.23047-0.14062 0.51953-0.058594 0.64844 0.17188 0.12891 0.23047 0.058593 0.51953-0.17188 0.64844l-8.3789 4.8789c-0.070312 0.039062-0.16016 0.070312-0.23828 0.070312z"/>
 <path d="m53.078 51.891c-2.1914 0-4.5117-1.4492-5.4688-2.9805-1.0703-1.6992-1.4297-4.0117-0.92188-5.8906 0.32031-1.1914 0.94922-2.0508 1.8086-2.5117 2.2188-1.1602 6 0 7.8711 3.5312 1.5391 2.9219 1.0781 5.8984-1.1094 7.2617-0.66016 0.41016-1.4102 0.58984-2.1719 0.58984zm-4.1367-10.531c-0.78906 0.41016-1.1602 1.2695-1.3281 1.9102-0.42969 1.6094-0.10938 3.6719 0.80859 5.1289 1.1992 1.9102 4.4219 3.2695 6.3281 2.0898 2.0508-1.2695 1.8711-3.9297 0.76953-6-1.5586-2.9492-4.7617-4.0781-6.5781-3.1289z"/>
 <path d="m54.02 31.379c-0.089843 0-0.17969-0.03125-0.26953-0.078125-0.21875-0.14844-0.28125-0.44141-0.12891-0.66016l6.1406-9.1797-2.6289 0.64844c-0.26172 0.058594-0.51953-0.089844-0.57812-0.35156-0.058594-0.26172 0.089843-0.51953 0.35156-0.57812l3.8281-0.94922c0.19141-0.050781 0.39062 0.03125 0.51172 0.19141 0.10938 0.16016 0.12109 0.37891 0 0.53906l-6.8203 10.211c-0.089843 0.14062-0.23828 0.21094-0.39844 0.21094z"/>
 <path d="m61.859 35.781c-0.078125 0-0.17188-0.019531-0.25-0.070312-0.23047-0.14063-0.30078-0.42969-0.16016-0.66016l3.4688-5.7109-3.3281-2.3203c-0.16016-0.10938-0.23047-0.30078-0.19922-0.48828 0.039063-0.19141 0.17969-0.32812 0.37109-0.37109l6.0312-1.2617c0.17969-0.039063 0.37891 0.039062 0.48828 0.19141 0.10938 0.14844 0.12109 0.35938 0.019531 0.51953l-2.1016 3.4492 2.5117 1.75c0.21875 0.14844 0.26953 0.44922 0.12109 0.67188-0.14844 0.21875-0.44922 0.26953-0.67188 0.12109l-2.4609-1.7109-3.4297 5.6484c-0.089843 0.14844-0.25 0.23047-0.41016 0.23047zm1.1914-8.9023 2.3711 1.6484 1.4883-2.4609-3.8594 0.80859z"/>
 <path d="m49.199 17.73s-0.089844 0-0.14062-0.019531l-7.3398-2.2383-2.8711 1.8008c-0.10938 0.070312-0.25 0.089843-0.37891 0.058593-0.12891-0.039062-0.23828-0.12109-0.30078-0.23828l-1.7617-3.3789c-0.089844-0.17188-0.070312-0.37891 0.058594-0.53125 0.12109-0.14844 0.32031-0.21094 0.51172-0.14844l4.6016 1.3984 3.3398-2.1016c0.21875-0.14062 0.51953-0.070312 0.66016 0.14844s0.070313 0.51953-0.14844 0.66016l-2.6406 1.6602 6.5508 2c0.25 0.078125 0.39062 0.33984 0.32031 0.60156-0.058594 0.21094-0.25 0.33984-0.46094 0.33984zm-11.41-3.4609 0.98828 1.9102 1.7305-1.0898-2.7188-0.82812z"/>
 <path d="m21.012 31.34c-0.058594 0-0.10938 0-0.17188-0.03125-0.25-0.089844-0.37109-0.37109-0.28125-0.60938l2.4297-6.5703-0.17188 0.23047c-0.16016 0.21094-0.44922 0.26172-0.67188 0.10938-0.21094-0.14844-0.26172-0.44922-0.10938-0.67188l2.2188-3.0586c0.14062-0.19141 0.39844-0.25 0.60938-0.14062 0.21094 0.10938 0.30859 0.35938 0.21875 0.58984l-3.6406 9.8516c-0.070312 0.19141-0.25 0.30859-0.44922 0.30859z"/>
 <path d="m26.25 28.48c-0.32812 0-0.62891-0.10938-0.87891-0.32812-0.42969-0.37109-0.66016-1.0117-0.66016-1.8008 0-1.1016 0.60937-1.9219 1.3086-2.6211-0.32812-0.30859-0.57812-0.76953-0.57812-1.5312 0-1.2305 1.3086-2.8789 2.1602-3.0312 0.42188-0.070313 0.76953 0 1.0312 0.21875 0.35156 0.30078 0.51172 0.82031 0.51172 1.7109 0 0.98828-0.71875 1.7383-1.4883 2.4297 0.60938 0.26953 1.2891 0.71094 1.3398 1.8906 0.058594 1.4492-1.0703 2.8086-2.5312 3.0312-0.070313 0.011719-0.14844 0.019531-0.21875 0.019531zm0.62109-4.2422c-0.67188 0.62891-1.1992 1.2695-1.1992 2.1094 0 0.5 0.12109 0.89844 0.32812 1.0781 0.089844 0.078125 0.19922 0.10938 0.32812 0.089844 0.94922-0.14062 1.75-1.1016 1.7109-2.0391-0.03125-0.76172-0.39844-0.91016-1.0117-1.1602-0.050782-0.019531-0.10156-0.039062-0.14844-0.058594zm1.0391-4.1289s-0.089844 0-0.14062 0.011719c-0.32031 0.058594-1.3711 1.25-1.3711 2.0898 0 0.44922 0.12109 0.69922 0.32812 0.87109 0.011719 0 0.019532-0.019531 0.03125-0.03125 0.73047-0.64844 1.4297-1.2695 1.4297-1.9492 0-0.78906-0.14062-0.94922-0.17188-0.96875-0.019531-0.019531-0.058594-0.019531-0.10938-0.019531zm-1.9883 2.1016z"/>
 <path d="m27.141 53.121c-0.17188 0-0.32031-0.089844-0.41016-0.23047-0.039063-0.058594-3.8008-6.2891-5.5117-8.7617-0.64844-0.92969-1.3789-1.3789-2.0117-1.2305-0.64062 0.16016-1.1484 0.92969-1.2812 1.9688-0.26172 1.9883 1.7695 2.3281 1.8594 2.3516 0.26172 0.039062 0.44141 0.28906 0.39844 0.55078-0.039063 0.26172-0.28906 0.44141-0.55078 0.39844-1.0508-0.17188-2.9609-1.0898-2.6602-3.4102 0.19141-1.4609 0.96094-2.5195 2-2.7695 1.0391-0.25 2.1406 0.33984 3.0195 1.6094 1.2695 1.8398 3.6484 5.7109 4.8398 7.6484l1.3398-10.281c0.03125-0.26172 0.26953-0.44922 0.53906-0.41016 0.26172 0.03125 0.44922 0.26953 0.41016 0.53906l-1.5117 11.629c-0.03125 0.19922-0.17969 0.35938-0.37891 0.41016-0.03125 0-0.070313 0.011719-0.10156 0.011719z"/>
 <path d="m61.199 80.711c-1.6484 0-2.8516-1.0312-3.5117-2.25-0.76953-1.4219-0.12891-2.9688 0.73828-4.5117-1.8398-0.039063-3.6797-0.32031-4.7188-1.8008-0.82031-1.1719-1.1406-2.4297-0.89062-3.5703 0.23047-1.0586 0.92969-1.9492 2.0391-2.6016 1.3086-0.76172 2.5898-1.0117 3.6992-0.69922 1.0586 0.28906 1.9297 1.0391 2.6016 2.25 0.98828 1.7695 0.019531 3.6406-1.0586 5.4688 1.9883-0.019532 3.8516 0.039062 4.7695 1.3711 0.53906 0.78125 0.94141 2.1289 0.62109 3.3906-0.25 1.0117-0.92969 1.8203-1.9609 2.3398-0.85156 0.42969-1.6289 0.62109-2.3281 0.62109zm-1.6797-6.7617c-0.89062 1.5117-1.6094 2.9219-1 4.0508 0.46094 0.83984 1.8086 2.6406 4.5781 1.2383 0.78906-0.39844 1.2812-0.98047 1.4688-1.7188 0.23828-0.96875-0.078125-2.0312-0.48047-2.6094-0.69141-0.98828-2.4414-0.96875-4.3008-0.96094h-0.26172zm-1.9414-7.8398c-0.85156 0-1.6602 0.35938-2.25 0.69922-0.87891 0.51172-1.4102 1.1797-1.5781 1.9805-0.19141 0.87109 0.070312 1.8711 0.73828 2.8086 0.87891 1.25 2.6602 1.3984 4.4883 1.3984 0-0.019532 0.019532-0.03125 0.03125-0.050782 1.0898-1.8086 2.1094-3.5312 1.3086-4.9609-0.53906-0.96875-1.2188-1.5703-2.0195-1.7891-0.23828-0.070312-0.48047-0.089843-0.71875-0.089843z"/>
 <path d="m84.359 45.398c-0.89844 0-2.1211-1.0781-3.5-2.3906-0.26172-0.25-0.46875-0.44922-0.60938-0.55859-0.19922-0.17188-0.23047-0.46875-0.070312-0.67188 0.17187-0.19922 0.46875-0.23047 0.67187-0.070313 0.14844 0.12891 0.37891 0.33984 0.66016 0.60938 1.5703 1.4883 2.5312 2.1992 2.8516 2.1289 0.26172-0.92187-1.8516-5.5508-3.5781-8.6914 0.011719 0.60938-0.039062 1.2891-0.21094 2-0.5 2-1.2695 2.1992-2.1602 2.2305h-0.12109c-0.51172 0.019531-1.0117-0.23047-1.4609-0.75-0.82812-0.94922-1.4805-2.8203-1.0898-4.8516 0.32031-1.6406 0.78125-2.5117 1.5195-2.8203 0.76953-0.32812 1.5781 0.10156 2.1211 0.44922 0.17188 0.10938 0.44141 0.42969 0.76172 0.89844 0.058594 0.050782 0.10938 0.10938 0.14062 0.19141 0 0.011719 0 0.019532 0.019532 0.039063 1.8984 2.8281 5.4492 9.9297 4.9883 11.512-0.14844 0.5-0.48828 0.66016-0.67969 0.71094-0.078125 0.019531-0.17188 0.03125-0.26172 0.03125zm-6.5078-13c-0.078124 0-0.14844 0.011718-0.21094 0.039062-0.26953 0.12109-0.66016 0.57812-0.94922 2.1211-0.32812 1.7109 0.21875 3.2891 0.87891 4.0391 0.23828 0.28125 0.5 0.44141 0.69141 0.42969h0.12891c0.57031-0.03125 0.91016-0.039063 1.2812-1.5117 0.53125-2.1211-0.21875-3.9805-0.25-4.0586 0-0.011719-0.011719-0.03125-0.019531-0.039062-0.21875-0.30859-0.39844-0.51953-0.53125-0.60156-0.42188-0.26953-0.76172-0.41016-1.0117-0.41016z"/>
 <path d="m76.211 60.719c-0.17969 0-0.33984-0.10156-0.42969-0.26953-0.12109-0.23828-0.019531-0.51953 0.21875-0.64062l7.7109-3.8203-0.82813-0.14844c-0.26172-0.050782-0.42969-0.30078-0.39062-0.55859 0.050781-0.26172 0.30078-0.42969 0.55859-0.39062l2.25 0.41016c0.19922 0.039063 0.35938 0.19922 0.39062 0.39844s-0.078125 0.39844-0.26172 0.5l-9.0117 4.4609c-0.070313 0.03125-0.14062 0.050782-0.21094 0.050782z"/>
 <path d="m78.859 68.77c-0.089844 0-0.17969 0-0.26953-0.019531-1.2305-0.14844-2.2891-1.2305-2.4688-2.5195-0.23828-1.6797 0.55078-4.0586 2.2617-4.9688 0.050782-0.03125 0.21094-0.14062 0.42188-0.28125 3.8086-2.5703 5.6016-3.3203 6.3906-2.6719 0.12109 0.10156 0.28125 0.28906 0.30078 0.62109 0.078125 0.96094-1.0781 2.7109-1.5508 3.2383-0.17969 0.19922-0.48047 0.21094-0.67969 0.039062-0.19922-0.17969-0.21875-0.48047-0.039063-0.67969 0.62891-0.71094 1.3984-2.2109 1.3086-2.5508-0.10938-0.011718-0.87891-0.050781-4.4297 2.2812 0.44922 0.21875 0.78125 0.62109 0.98828 1.1914 0.42188 1.1406 0.67969 2.5117-0.23828 4.8086-0.37891 0.96094-1.1211 1.5-2.0117 1.5zm-0.050781-6.6484c-1.3789 0.75-1.9102 2.8281-1.7383 3.9805 0.14063 0.96094 0.94141 1.6211 1.6406 1.6992 0.57812 0.070313 1.0117-0.23828 1.2695-0.89062 0.83984-2.1016 0.55859-3.2305 0.23047-4.1289-0.12891-0.35156-0.30859-0.57812-0.55078-0.67969-0.35938-0.16016-0.76953-0.011718-0.83984 0.011719z"/>
 <path d="m34.441 80.672c-1.1211 0-2.1914-0.25-2.5-1.0703-0.14844-0.42187-0.078125-0.92969 0.23047-1.4883 0.48828-0.91016 1.6211-1.9609 2.8281-2.2305 1.0195-0.23047 2.9492-0.12109 3.8008 1.1484 0.33984 0.51172 0.42188 1.0898 0.23047 1.6484-0.26172 0.73047-0.94922 1.3008-1.9492 1.6211-0.55859 0.17188-1.6211 0.37891-2.6406 0.37891zm1.4883-3.9336c-0.26953 0-0.51953 0.03125-0.73047 0.070313-0.87891 0.19922-1.8086 1.0508-2.1914 1.75-0.19141 0.35156-0.21094 0.58984-0.17187 0.69922 0.21875 0.60156 2.4883 0.57031 3.9609 0.10938 0.69141-0.21875 1.1797-0.58984 1.3281-1.0195 0.089844-0.26953 0.050781-0.53906-0.12109-0.80078-0.41016-0.60156-1.3086-0.82031-2.0703-0.82031zm-0.82813-0.38672z"/>
 <path d="m24.859 76.238h-0.050781c-0.23828-0.019531-0.42188-0.21875-0.42969-0.46094l-0.26172-7.2812c0-0.26172 0.19922-0.48828 0.46094-0.48828 0.25 0 0.48828 0.19922 0.48828 0.46094l0.16016 4.5586c0.078126-0.03125 0.17188-0.03125 0.26172-0.011719 0.26172 0.058594 0.42188 0.32031 0.35938 0.57031l-0.53125 2.2812c-0.050781 0.21875-0.25 0.37109-0.46094 0.37109z"/>
 <path d="m22.59 72.262c-1.3516 0-1.9102-1.8984-1.9492-3.1094-0.050781-1.4492 0.67969-3.3789 1.1719-4.2812l-3.3398-4.2305c-0.16016-0.21094-0.12891-0.51172 0.078125-0.67188 0.21094-0.16016 0.51172-0.12891 0.67188 0.078125l3.5312 4.4688c0.12891 0.17188 0.14062 0.41016 0 0.57812-0.19141 0.32031-1.2188 2.3984-1.1719 4.0195 0.03125 0.87109 0.44141 2.1797 1 2.1797 0.12891-0.12891 0.21875-1.0117 0.14062-1.8086-0.03125-0.26172 0.16016-0.5 0.42969-0.51953 0.26172-0.03125 0.5 0.16016 0.53125 0.42188 0.050781 0.44141 0.14844 1.9219-0.41016 2.5508-0.17969 0.19922-0.41016 0.30859-0.67188 0.30859h-0.011718z"/>
 <path d="m34.621 81.988c-0.26172 0-0.46875-0.21094-0.48047-0.46875 0-0.26172 0.21094-0.48047 0.46875-0.48828l9.8711-0.17969c0.25-0.019531 0.48047 0.21094 0.48828 0.46875 0 0.26172-0.21094 0.48047-0.46875 0.48828l-9.8711 0.17969z"/>
 <path d="m37.852 82.469h-0.070312l-3.2305-0.48828c-0.26172-0.039063-0.44141-0.28125-0.39844-0.53906 0.039062-0.26172 0.28125-0.44141 0.53906-0.39844l3.2305 0.48828c0.26172 0.039062 0.44141 0.28125 0.39844 0.53906-0.039062 0.23828-0.23828 0.41016-0.46875 0.41016z"/>
<text x="0.0" y="117.5" font-size="5.0" font-weight="bold" font-family="Arbeit Regular, Helvetica, Arial-Unicode, Arial, Sans-serif" fill="#000000">Created by Delaney Lampinen</text><text x="0.0" y="122.5" font-size="5.0" font-weight="bold" font-family="Arbeit Regular, Helvetica, Arial-Unicode, Arial, Sans-serif" fill="#000000">from Noun Project</text></svg>